<mxfile host="app.diagrams.net" modified="2024-07-16T05:53:41.781Z" agent="Mozilla/5.0 (Windows NT 10.0; Win64; x64) AppleWebKit/537.36 (KHTML, like Gecko) Chrome/126.0.0.0 Safari/537.36" etag="XT3je-kvGHKIS3Z5DSqH" version="24.6.5" type="device">
  <diagram id="C5RBs43oDa-KdzZeNtuy" name="Page-1">
    <mxGraphModel dx="819" dy="429" grid="1" gridSize="10" guides="1" tooltips="1" connect="1" arrows="1" fold="1" page="1" pageScale="1" pageWidth="827" pageHeight="1169" math="0" shadow="0">
      <root>
        <mxCell id="WIyWlLk6GJQsqaUBKTNV-0" />
        <mxCell id="WIyWlLk6GJQsqaUBKTNV-1" parent="WIyWlLk6GJQsqaUBKTNV-0" />
        <mxCell id="zkfFHV4jXpPFQw0GAbJ--0" value="AuthService" style="swimlane;fontStyle=2;align=center;verticalAlign=top;childLayout=stackLayout;horizontal=1;startSize=26;horizontalStack=0;resizeParent=1;resizeLast=0;collapsible=1;marginBottom=0;rounded=0;shadow=0;strokeWidth=1;fillColor=#dae8fc;strokeColor=#6c8ebf;" parent="WIyWlLk6GJQsqaUBKTNV-1" vertex="1">
          <mxGeometry x="140" y="320" width="120" height="118" as="geometry">
            <mxRectangle x="230" y="140" width="160" height="26" as="alternateBounds" />
          </mxGeometry>
        </mxCell>
        <mxCell id="zkfFHV4jXpPFQw0GAbJ--1" value="login()" style="text;align=left;verticalAlign=top;spacingLeft=4;spacingRight=4;overflow=hidden;rotatable=0;points=[[0,0.5],[1,0.5]];portConstraint=eastwest;" parent="zkfFHV4jXpPFQw0GAbJ--0" vertex="1">
          <mxGeometry y="26" width="120" height="26" as="geometry" />
        </mxCell>
        <mxCell id="zkfFHV4jXpPFQw0GAbJ--2" value="logout()" style="text;align=left;verticalAlign=top;spacingLeft=4;spacingRight=4;overflow=hidden;rotatable=0;points=[[0,0.5],[1,0.5]];portConstraint=eastwest;rounded=0;shadow=0;html=0;" parent="zkfFHV4jXpPFQw0GAbJ--0" vertex="1">
          <mxGeometry y="52" width="120" height="26" as="geometry" />
        </mxCell>
        <mxCell id="aYcQWq7QJ7pHMA8n7LbQ-19" value="JwtTokenCacheService" style="swimlane;fontStyle=2;align=center;verticalAlign=top;childLayout=stackLayout;horizontal=1;startSize=26;horizontalStack=0;resizeParent=1;resizeLast=0;collapsible=1;marginBottom=0;rounded=0;shadow=0;strokeWidth=1;fillColor=#d5e8d4;strokeColor=#82b366;" vertex="1" parent="WIyWlLk6GJQsqaUBKTNV-1">
          <mxGeometry x="310" y="320" width="150" height="118" as="geometry">
            <mxRectangle x="230" y="140" width="160" height="26" as="alternateBounds" />
          </mxGeometry>
        </mxCell>
        <mxCell id="aYcQWq7QJ7pHMA8n7LbQ-20" value="storeToken()" style="text;align=left;verticalAlign=top;spacingLeft=4;spacingRight=4;overflow=hidden;rotatable=0;points=[[0,0.5],[1,0.5]];portConstraint=eastwest;" vertex="1" parent="aYcQWq7QJ7pHMA8n7LbQ-19">
          <mxGeometry y="26" width="150" height="26" as="geometry" />
        </mxCell>
        <mxCell id="aYcQWq7QJ7pHMA8n7LbQ-21" value="blackListToken()" style="text;align=left;verticalAlign=top;spacingLeft=4;spacingRight=4;overflow=hidden;rotatable=0;points=[[0,0.5],[1,0.5]];portConstraint=eastwest;rounded=0;shadow=0;html=0;" vertex="1" parent="aYcQWq7QJ7pHMA8n7LbQ-19">
          <mxGeometry y="52" width="150" height="26" as="geometry" />
        </mxCell>
        <mxCell id="aYcQWq7QJ7pHMA8n7LbQ-33" value="" style="endArrow=classic;html=1;rounded=0;" edge="1" parent="aYcQWq7QJ7pHMA8n7LbQ-19">
          <mxGeometry width="50" height="50" relative="1" as="geometry">
            <mxPoint x="210" y="80" as="sourcePoint" />
            <mxPoint x="150" y="80" as="targetPoint" />
          </mxGeometry>
        </mxCell>
        <mxCell id="aYcQWq7QJ7pHMA8n7LbQ-22" value="CacheService" style="swimlane;fontStyle=2;align=center;verticalAlign=top;childLayout=stackLayout;horizontal=1;startSize=26;horizontalStack=0;resizeParent=1;resizeLast=0;collapsible=1;marginBottom=0;rounded=0;shadow=0;strokeWidth=1;fillColor=#f8cecc;strokeColor=#b85450;" vertex="1" parent="WIyWlLk6GJQsqaUBKTNV-1">
          <mxGeometry x="520" y="320" width="120" height="118" as="geometry">
            <mxRectangle x="230" y="140" width="160" height="26" as="alternateBounds" />
          </mxGeometry>
        </mxCell>
        <mxCell id="aYcQWq7QJ7pHMA8n7LbQ-23" value="setValue()" style="text;align=left;verticalAlign=top;spacingLeft=4;spacingRight=4;overflow=hidden;rotatable=0;points=[[0,0.5],[1,0.5]];portConstraint=eastwest;" vertex="1" parent="aYcQWq7QJ7pHMA8n7LbQ-22">
          <mxGeometry y="26" width="120" height="26" as="geometry" />
        </mxCell>
        <mxCell id="aYcQWq7QJ7pHMA8n7LbQ-24" value="addToSet()" style="text;align=left;verticalAlign=top;spacingLeft=4;spacingRight=4;overflow=hidden;rotatable=0;points=[[0,0.5],[1,0.5]];portConstraint=eastwest;rounded=0;shadow=0;html=0;" vertex="1" parent="aYcQWq7QJ7pHMA8n7LbQ-22">
          <mxGeometry y="52" width="120" height="26" as="geometry" />
        </mxCell>
        <mxCell id="aYcQWq7QJ7pHMA8n7LbQ-25" value="Redis" style="shape=cylinder3;whiteSpace=wrap;html=1;boundedLbl=1;backgroundOutline=1;size=15;fillColor=#f8cecc;gradientColor=#ea6b66;strokeColor=#b85450;" vertex="1" parent="WIyWlLk6GJQsqaUBKTNV-1">
          <mxGeometry x="700" y="320" width="60" height="100" as="geometry" />
        </mxCell>
        <mxCell id="aYcQWq7QJ7pHMA8n7LbQ-26" value="" style="endArrow=classic;html=1;rounded=0;entryX=0;entryY=-0.019;entryDx=0;entryDy=0;entryPerimeter=0;" edge="1" parent="WIyWlLk6GJQsqaUBKTNV-1">
          <mxGeometry width="50" height="50" relative="1" as="geometry">
            <mxPoint x="30" y="359.99" as="sourcePoint" />
            <mxPoint x="140" y="359.4960000000001" as="targetPoint" />
          </mxGeometry>
        </mxCell>
        <mxCell id="aYcQWq7QJ7pHMA8n7LbQ-27" value="" style="endArrow=classic;html=1;rounded=0;" edge="1" parent="WIyWlLk6GJQsqaUBKTNV-1">
          <mxGeometry width="50" height="50" relative="1" as="geometry">
            <mxPoint x="140" y="400" as="sourcePoint" />
            <mxPoint x="30" y="400" as="targetPoint" />
          </mxGeometry>
        </mxCell>
        <mxCell id="aYcQWq7QJ7pHMA8n7LbQ-29" value="" style="endArrow=classic;html=1;rounded=0;" edge="1" parent="WIyWlLk6GJQsqaUBKTNV-1">
          <mxGeometry width="50" height="50" relative="1" as="geometry">
            <mxPoint x="260" y="359.99" as="sourcePoint" />
            <mxPoint x="310" y="359" as="targetPoint" />
          </mxGeometry>
        </mxCell>
        <mxCell id="aYcQWq7QJ7pHMA8n7LbQ-31" value="" style="endArrow=classic;html=1;rounded=0;entryX=0;entryY=0.5;entryDx=0;entryDy=0;" edge="1" parent="WIyWlLk6GJQsqaUBKTNV-1" target="aYcQWq7QJ7pHMA8n7LbQ-23">
          <mxGeometry width="50" height="50" relative="1" as="geometry">
            <mxPoint x="460" y="360.49" as="sourcePoint" />
            <mxPoint x="510" y="359.5" as="targetPoint" />
          </mxGeometry>
        </mxCell>
        <mxCell id="aYcQWq7QJ7pHMA8n7LbQ-35" value="" style="endArrow=classic;html=1;rounded=0;" edge="1" parent="WIyWlLk6GJQsqaUBKTNV-1">
          <mxGeometry width="50" height="50" relative="1" as="geometry">
            <mxPoint x="310" y="400" as="sourcePoint" />
            <mxPoint x="260" y="400" as="targetPoint" />
          </mxGeometry>
        </mxCell>
        <mxCell id="aYcQWq7QJ7pHMA8n7LbQ-36" value="" style="endArrow=classic;html=1;rounded=0;entryX=0;entryY=0.4;entryDx=0;entryDy=0;entryPerimeter=0;exitX=1;exitY=0.5;exitDx=0;exitDy=0;" edge="1" parent="WIyWlLk6GJQsqaUBKTNV-1" source="aYcQWq7QJ7pHMA8n7LbQ-23" target="aYcQWq7QJ7pHMA8n7LbQ-25">
          <mxGeometry width="50" height="50" relative="1" as="geometry">
            <mxPoint x="470" y="370.49" as="sourcePoint" />
            <mxPoint x="530" y="369" as="targetPoint" />
          </mxGeometry>
        </mxCell>
        <mxCell id="aYcQWq7QJ7pHMA8n7LbQ-38" value="" style="endArrow=classic;html=1;rounded=0;" edge="1" parent="WIyWlLk6GJQsqaUBKTNV-1">
          <mxGeometry width="50" height="50" relative="1" as="geometry">
            <mxPoint x="700" y="400.00000000000006" as="sourcePoint" />
            <mxPoint x="640" y="400.00000000000006" as="targetPoint" />
          </mxGeometry>
        </mxCell>
        <mxCell id="aYcQWq7QJ7pHMA8n7LbQ-39" value="RedisCacheServiceImpl" style="swimlane;fontStyle=2;align=center;verticalAlign=top;childLayout=stackLayout;horizontal=1;startSize=26;horizontalStack=0;resizeParent=1;resizeLast=0;collapsible=1;marginBottom=0;rounded=0;shadow=0;strokeWidth=1;fillColor=#f8cecc;strokeColor=#b85450;" vertex="1" parent="WIyWlLk6GJQsqaUBKTNV-1">
          <mxGeometry x="510" y="480" width="150" height="118" as="geometry">
            <mxRectangle x="230" y="140" width="160" height="26" as="alternateBounds" />
          </mxGeometry>
        </mxCell>
        <mxCell id="aYcQWq7QJ7pHMA8n7LbQ-40" value="setValue()" style="text;align=left;verticalAlign=top;spacingLeft=4;spacingRight=4;overflow=hidden;rotatable=0;points=[[0,0.5],[1,0.5]];portConstraint=eastwest;" vertex="1" parent="aYcQWq7QJ7pHMA8n7LbQ-39">
          <mxGeometry y="26" width="150" height="26" as="geometry" />
        </mxCell>
        <mxCell id="aYcQWq7QJ7pHMA8n7LbQ-41" value="addToSet()" style="text;align=left;verticalAlign=top;spacingLeft=4;spacingRight=4;overflow=hidden;rotatable=0;points=[[0,0.5],[1,0.5]];portConstraint=eastwest;rounded=0;shadow=0;html=0;" vertex="1" parent="aYcQWq7QJ7pHMA8n7LbQ-39">
          <mxGeometry y="52" width="150" height="26" as="geometry" />
        </mxCell>
        <mxCell id="aYcQWq7QJ7pHMA8n7LbQ-42" value="" style="endArrow=classic;html=1;rounded=0;exitX=0.462;exitY=-0.006;exitDx=0;exitDy=0;exitPerimeter=0;entryX=0.5;entryY=1;entryDx=0;entryDy=0;" edge="1" parent="WIyWlLk6GJQsqaUBKTNV-1" source="aYcQWq7QJ7pHMA8n7LbQ-39" target="aYcQWq7QJ7pHMA8n7LbQ-22">
          <mxGeometry width="50" height="50" relative="1" as="geometry">
            <mxPoint x="540" y="488" as="sourcePoint" />
            <mxPoint x="590" y="438" as="targetPoint" />
          </mxGeometry>
        </mxCell>
      </root>
    </mxGraphModel>
  </diagram>
</mxfile>
